<?xml version="1.0" encoding="utf-8"?>
<!-- Generator: Adobe Illustrator 23.0.2, SVG Export Plug-In . SVG Version: 6.00 Build 0)  -->
<svg version="1.1" id="Layer_1" xmlns="http://www.w3.org/2000/svg" xmlns:xlink="http://www.w3.org/1999/xlink" x="0px" y="0px"
	 viewBox="0 0 595.3 157.7" style="enable-background:new 0 0 595.3 157.7;" xml:space="preserve">
<style type="text/css">
	.st0{fill:#029DDB;}
	.st1{fill:#642260;}
</style>
<g>
	<g>
		<path class="st0" d="M325.2,118.3c1.4,0,2.8,0,4.2,0c0.5,0,0.9,0.3,1.1,0.7c0.1,0.2,0.2,0.3,0.2,0.5c0.9,2,1.8,4.1,2.7,6.1
			c2.7,6.2,5.4,12.4,8.2,18.7c0.1,0.3,0.3,0.7,0.6,0.9c0.1,0.1,0.3,0,0.5,0c0.1-0.3,0.2-0.5,0.3-0.8c1.1-3.8,2.2-7.7,3.3-11.5
			c1.2-4.2,2.4-8.4,3.6-12.6c0.2-0.5,0.3-1.1,0.6-1.6c0.1-0.2,0.2-0.3,0.4-0.3c0.2,0,0.4-0.1,0.5-0.1c2,0,4.1,0,6.1,0
			c0.1,0,0.2,0,0.3,0c0.3,0.1,0.6,0.2,0.7,0.5c0.3,0.7,0.5,1.4,0.7,2.1c1.5,5.3,3,10.6,4.5,15.8c0.7,2.6,1.5,5.2,2.2,7.8
			c0.1,0.2,0.1,0.4,0.2,0.5c0.1,0.2,0.2,0.3,0.4,0.2c0.1,0,0.2-0.1,0.2-0.1c0.3-0.3,0.4-0.6,0.6-1c1.6-3.7,3.2-7.3,4.8-11
			c2-4.5,4-9,5.9-13.6c0.1-0.3,0.2-0.5,0.4-0.8c0.2-0.3,0.5-0.6,0.9-0.6c0.3,0,0.6-0.1,0.8,0c2.7,0,5.4-0.1,8.1,0.1
			c0.3,0,0.6,0.5,0.5,0.8c-0.1,0.2-0.1,0.4-0.2,0.5c-0.1,0.3-0.2,0.5-0.3,0.8c-5,11.6-10,23.3-15,34.9c-0.2,0.4-0.4,0.9-0.6,1.3
			c-0.1,0.2-0.3,0.5-0.6,0.5c-0.6,0-1.1,0.1-1.7,0.1c-1.4,0-2.8,0-4.2,0c-2.8-0.1-5.4-2-6.4-4.6c-0.2-0.6-0.4-1.2-0.6-1.9
			c-1.3-4.9-2.7-9.9-4-14.8c-0.1-0.5-0.3-1.1-0.5-1.6c-0.1-0.2-0.2-0.3-0.3-0.3c-0.2,0-0.3,0.2-0.4,0.4c-0.1,0.2-0.2,0.3-0.2,0.5
			c-0.8,2.7-1.6,5.4-2.3,8c-1.1,4-2.3,8.1-3.4,12.1c-0.2,0.6-0.4,1.2-0.7,1.8c-0.1,0.2-0.2,0.3-0.4,0.3c-0.2,0-0.4,0.1-0.5,0.1
			c-1.8,0-3.5,0-5.3,0c-2.9-0.1-4.9-1.5-6.3-3.9c-0.2-0.4-0.4-0.8-0.6-1.3c-1.7-3.8-3.3-7.7-5-11.5c-2.2-5.1-4.4-10.3-6.6-15.4
			c-0.8-2-1.8-3.9-2.5-5.9c-0.1-0.2,0.2-0.6,0.4-0.7c0.3,0,0.6-0.1,0.8-0.1C322.6,118.3,323.9,118.3,325.2,118.3
			C325.2,118.3,325.2,118.3,325.2,118.3z"/>
		<path class="st0" d="M178.6,137.8c0,3.3,0,6.7,0,10c0,0.7,0,1.3,0,2c0,1-0.3,2-0.8,3c-0.5,1.1-1.4,2-2.4,2.6
			c-0.8,0.5-1.7,0.9-2.6,1.1c-1.3,0.3-2.7,0.7-4.1,0.7c-0.7,0-1.5,0-2.2,0c-4.5,0-8.9,0-13.4,0c-0.7,0-1.3,0-2,0
			c-1.5,0-3-0.3-4.4-0.6c-0.5-0.1-1.1-0.3-1.6-0.6c-1.3-0.6-2.3-1.6-3-2.9c-0.6-1.3-1-2.6-1-4c0-0.6,0-1.1,0-1.7
			c0-6.4,0-12.8,0-19.3c0-0.7,0-1.3,0-2c0.1-3,1.5-5.1,4.1-6.4c1.2-0.6,2.4-1,3.7-1.1c1.6-0.2,3.1-0.3,4.7-0.3c4.2,0,8.4,0,12.6,0
			c1.6,0,3.2,0.1,4.7,0.3c1.5,0.2,2.9,0.6,4.2,1.4c1.1,0.6,1.9,1.4,2.5,2.5c0.5,0.9,0.8,1.9,0.8,2.9c0,0.6,0,1.3,0,2
			C178.6,130.9,178.6,134.3,178.6,137.8z M168.4,137.9C168.4,137.9,168.4,137.9,168.4,137.9c0-1.8,0-3.5,0-5.3c0-1,0-2,0-3.1
			c0-0.6-0.1-1.1-0.2-1.6c-0.3-1-0.9-1.6-1.8-2c-0.8-0.4-1.6-0.5-2.4-0.5c-2.7,0-5.4,0-8.1,0c-0.9,0-1.7,0.2-2.4,0.5
			c-1.2,0.6-1.8,1.5-2,2.8c-0.1,0.6,0,1.1,0,1.7c0,4.8,0,9.7,0.1,14.5c0,0.5,0,0.9,0,1.4c0.1,0.5,0.2,0.9,0.3,1.4
			c0.2,0.7,0.6,1.2,1.1,1.5c0.6,0.4,1.3,0.7,2.1,0.7c0.6,0,1.1,0.1,1.7,0.1c2.2,0,4.5,0,6.7,0c0.6,0,1.1,0,1.7-0.1
			c0.8,0,1.4-0.3,2.1-0.7c0.5-0.3,0.8-0.7,1-1.3c0.2-0.6,0.3-1.3,0.3-1.9C168.4,143.3,168.4,140.6,168.4,137.9z"/>
		<path class="st0" d="M211.6,141.5c0,0.2,0,0.4,0.1,0.5c0.4,0.5,0.8,1,1.2,1.5c3.4,4,6.7,8,10.1,11.9c0.2,0.3,0.4,0.6,0.6,0.9
			c0.1,0.2,0.1,0.3,0,0.5c-0.1,0.1-0.1,0.1-0.2,0.1c-0.2,0-0.4,0.1-0.6,0.1c-3.1,0-6.1,0-9.2,0c-0.3,0-0.6,0-0.8-0.1
			c-0.2,0-0.4-0.1-0.5-0.2c-0.2-0.2-0.4-0.4-0.6-0.6c-3.7-4.5-7.5-9-11.2-13.5c-0.3-0.4-0.4-0.8-0.2-1.3c0.7-1.7,1.3-3.5,2-5.2
			c0.1-0.2,0.2-0.3,0.3-0.5c0.1-0.1,0.3-0.3,0.5-0.3c0.4-0.1,0.7-0.1,1.1-0.1c2,0,3.9,0,5.9,0c0.6,0,1.3,0,1.9-0.1
			c0.6-0.1,1.1-0.3,1.5-0.7c0.6-0.5,1-1.1,1-1.9c0-1.4,0-2.8,0-4.2c0-0.1,0-0.2,0-0.3c-0.1-1-0.7-1.7-1.5-2.2
			c-0.8-0.4-1.7-0.7-2.7-0.7c-0.5,0-0.9,0-1.4,0c-3.1,0-6.1,0-9.2,0c-0.5,0-0.9,0-1.4,0.1c-0.3,0-0.7,0.4-0.8,0.7
			c0,0.3-0.1,0.6-0.1,0.8c0,0.8,0,1.7,0,2.5c0,8.3,0,16.6,0,24.8c0,0.7-0.1,1.5-0.1,2.2c0,0.2-0.4,0.5-0.5,0.6
			c-0.1,0-0.2,0.1-0.3,0.1c-2.8,0-5.6,0-8.4,0c-0.2,0-0.4,0-0.5-0.1c-0.2-0.1-0.3-0.2-0.4-0.4c-0.1-0.2-0.1-0.4-0.1-0.5
			c0-0.5,0-0.9,0-1.4c0-11.4,0-22.7,0-34.1c0-0.6,0-1.1,0.1-1.7c0-0.2,0.3-0.6,0.5-0.6c0.2,0,0.4-0.1,0.6-0.1c0.7,0,1.3,0,2,0
			c6.9,0,13.8,0,20.7,0c1.6,0,3.2,0.1,4.7,0.2c1.1,0.1,2.2,0.4,3.2,0.8c0.9,0.3,1.7,0.8,2.4,1.4c0.9,0.9,1.5,1.9,1.7,3.1
			c0.1,0.8,0.3,1.7,0.3,2.5c0,2.2,0,4.5,0,6.7c0,0.8-0.1,1.7-0.3,2.5c-0.2,0.8-0.6,1.6-1.1,2.2c-0.6,0.7-1.3,1.3-2.1,1.8
			c-1.3,0.7-2.7,1.3-4.2,1.4c-1,0.1-2,0.1-3.1,0.2c-0.2,0-0.4,0.1-0.5,0.2c-0.1-0.2-0.2-0.3-0.4-0.2c-0.1,0-0.2,0.1-0.2,0.1
			C211.3,141.5,211.4,141.6,211.6,141.5z"/>
		<path class="st0" d="M505.7,137.6c0-5.8,0-11.5,0-17.3c0-0.5,0-0.9,0.1-1.4c0.1-0.2,0.2-0.3,0.4-0.4c0.2-0.1,0.4-0.1,0.5-0.1
			c0.6,0,1.1,0,1.7,0c7.2,0,14.3,0,21.5,0c1.5,0,3,0.1,4.5,0.2c1,0.1,2,0.4,3,0.7c1,0.3,1.9,0.9,2.6,1.6c0.7,0.7,1.3,1.6,1.5,2.6
			c0.2,0.8,0.4,1.6,0.4,2.5c0,2.5,0,5,0,7.5c0,0.8-0.2,1.7-0.4,2.5c-0.2,0.6-0.5,1.2-0.9,1.7c-0.6,0.7-1.3,1.3-2.1,1.8
			c-1.3,0.8-2.7,1.3-4.2,1.5c-0.6,0.1-1.3,0.1-1.9,0.2c-0.5,0.1-1.1-0.1-1.7,0.1c-0.2,0.1-0.3,0.2-0.3,0.4c0,0.1,0,0.2,0,0.3
			c0.3,0.4,0.5,0.8,0.8,1.1c1.1,1.4,2.3,2.7,3.4,4.1c0.2,0.2,0.3,0.4,0.5,0.7c0.1,0.2,0.1,0.4,0,0.5c-0.2,0.4-0.4,0.8-0.6,1.2
			c-1,1.8-2,3.6-3.1,5.3c-0.2,0.3-0.4,0.6-0.6,0.9c-0.1,0.2-0.5,0.2-0.7,0c-0.1-0.1-0.3-0.3-0.4-0.4c-3.5-4.2-7-8.5-10.5-12.7
			c-0.3-0.4-0.4-0.8-0.2-1.3c0.7-1.7,1.3-3.5,2-5.2c0-0.1,0.1-0.2,0.2-0.2c0.2-0.2,0.3-0.5,0.6-0.5c0.4,0,0.7-0.1,1.1-0.1
			c2,0,3.9,0,5.9,0c0.6,0,1.1,0,1.7-0.1c0.6,0,1.1-0.3,1.6-0.6c0.7-0.4,1.1-1,1.2-1.8c0.1-1.6,0.1-3.2,0-4.7c-0.1-1-0.7-1.7-1.6-2.1
			c-0.9-0.4-1.9-0.7-3-0.7c-3.8,0-7.6,0-11.5,0c-0.1,0-0.2,0-0.3,0c-0.2,0-0.5,0.4-0.6,0.5c-0.2,0.6-0.1,1.3-0.1,1.9
			c0,8.7,0,17.3,0,26c0,0.8,0,1.7-0.1,2.5c0,0.3-0.4,0.7-0.7,0.7c-0.1,0-0.2,0-0.3,0c-2.8,0-5.6,0-8.4,0c-0.5,0-0.9-0.4-0.9-0.9
			c0-0.3,0-0.6,0-0.8c0-0.6,0-1.1,0-1.7C505.7,148.4,505.7,143,505.7,137.6z"/>
		<path class="st0" d="M463.6,138c0-3.3,0-6.7,0-10c0-0.7,0-1.5,0-2.2c0-0.8,0.2-1.5,0.5-2.2c0.6-1.7,1.8-3,3.4-3.9
			c1-0.5,2.1-0.9,3.2-1c1.4-0.2,2.8-0.3,4.2-0.3c7.1,0,14.1,0,21.2,0c0.4,0,0.7,0,1.1,0c0.5,0,0.9,0.4,0.9,0.9c0,1.8,0.1,3.5,0,5.3
			c0,0.3-0.4,0.7-0.7,0.7c-0.3,0-0.6,0.1-0.8,0.1c-0.7,0-1.5,0-2.2,0c-4.7,0-9.3,0-14,0c-0.7,0-1.5,0-2.2,0c-1,0-1.8,0.3-2.7,0.7
			c-1,0.5-1.5,1.4-1.6,2.5c-0.1,1.6-0.1,3.2,0,4.7c0,0.4,0.5,0.8,0.9,0.8c0.3,0,0.6,0,0.8,0c0.7,0,1.5,0,2.2,0c5.9,0,11.7,0,17.6,0
			c0.6,0,1.3,0,1.9,0.1c0.3,0,0.7,0.4,0.7,0.7c0.1,1.9,0.1,3.7,0,5.6c0,0.2-0.4,0.6-0.5,0.6c-0.2,0-0.4,0.1-0.5,0.1
			c-0.8,0-1.7,0-2.5,0c-5.9,0-11.7,0-17.6,0c-0.7,0-1.5,0-2.2,0.1c-0.3,0-0.8,0.5-0.8,0.7c0,0.1,0,0.2,0,0.3c0,1.4,0,2.8,0,4.2
			c0,0.1,0,0.2,0,0.3c0.2,1.8,1.3,2.9,3,3.2c0.8,0.1,1.7,0.1,2.5,0.1c5.5,0,11,0,16.5,0c0.6,0,1.1,0.1,1.7,0.1
			c0.2,0,0.6,0.3,0.6,0.5c0,0.1,0.1,0.2,0.1,0.3c0,1.8,0,3.5,0,5.3c0,0.5-0.4,0.9-0.8,0.9c-0.5,0-0.9,0-1.4,0c-6.6,0-13.2,0-19.8,0
			c-1,0-2,0-3.1-0.1c-1.7-0.1-3.3-0.5-4.9-1.1c-0.8-0.3-1.5-0.7-2.2-1.2c-1.1-0.8-1.8-1.9-2.1-3.2c-0.1-0.4-0.2-0.7-0.2-1.1
			c0-0.7,0-1.5,0-2.2C463.6,144.8,463.6,141.4,463.6,138z"/>
		<path class="st0" d="M97.2,137.5c0-5.5,0-11,0-16.5c0-0.6,0-1.3,0.1-1.9c0-0.3,0.4-0.7,0.7-0.7c0.6,0,1.1-0.1,1.7-0.1
			c3.8,0,7.6,0,11.4,0c4,0,8,0,12,0c1.4,0,2.8,0.1,4.2,0.3c1.8,0.2,3.4,0.8,4.9,1.8c0.7,0.4,1.3,1,1.9,1.7c0.6,0.7,1,1.6,1.1,2.5
			c0.1,0.6,0.1,1.3,0.1,1.9c0,2.7,0,5.4,0,8.1c0,0.6-0.1,1.3-0.1,1.9c-0.1,1-0.5,1.8-1,2.6c-0.5,0.7-1.1,1.3-1.8,1.7
			c-1,0.6-2,1-3.1,1.3c-1.5,0.3-2.9,0.5-4.4,0.5c-4.9,0-9.9,0-14.8,0c-0.7,0-1.3,0-1.9,0.1c-0.2,0-0.4,0.2-0.4,0.4
			c-0.1,0.5-0.1,0.9-0.1,1.4c0,3.4,0,6.9,0,10.3c0,0.6,0,1.1-0.1,1.7c0,0.2-0.3,0.6-0.5,0.6c-0.1,0-0.2,0.1-0.3,0.1
			c-0.2,0-0.4,0-0.6,0c-2.5,0-5,0-7.5,0c-0.3,0-0.6-0.1-0.8-0.1c-0.2,0-0.5-0.4-0.5-0.6c0-0.6-0.1-1.3-0.1-1.9
			C97.2,148.9,97.2,143.2,97.2,137.5z M114.7,125.3C114.7,125.3,114.7,125.3,114.7,125.3c-1.8,0-3.5,0-5.3,0c-0.4,0-0.7,0-1.1,0.1
			c-0.2,0-0.5,0.4-0.6,0.5c0,0.1-0.1,0.2-0.1,0.3c-0.1,2.8-0.1,5.6,0,8.4c0,0.1,0,0.2,0.1,0.3c0.1,0.1,0.2,0.3,0.4,0.4
			c0.5,0.1,0.9,0.1,1.4,0.1c3.4,0,6.7,0,10.1,0c0.4,0,0.7,0,1.1,0c1,0,1.9-0.2,2.7-0.6c0.9-0.4,1.5-1.2,1.6-2.2c0.1-1.4,0-2.8,0-4.2
			c0-0.4-0.2-0.7-0.3-1.1c-0.3-0.6-0.8-1-1.4-1.3c-0.8-0.4-1.7-0.7-2.7-0.6C118.6,125.4,116.7,125.3,114.7,125.3z"/>
		<path class="st0" d="M282.1,157.2c-3.5,0-7.1,0-10.6,0c-0.5,0-0.9-0.1-1.4-0.1c-0.2,0-0.6-0.4-0.6-0.5c0-0.1,0-0.2,0-0.3
			c0-1.8,0-3.5,0-5.3c0-0.2,0.1-0.4,0.2-0.5c0.1-0.2,0.2-0.3,0.4-0.4c0.5-0.1,0.9-0.1,1.4-0.1c5.2,0,10.4,0,15.6,0
			c0.7,0,1.5,0,2.2,0c1.1,0,2-0.5,2.8-1.1c0.6-0.5,1-1.2,1-1.9c0.1-1,0-2,0-3.1c0-0.1,0-0.2-0.1-0.3c-0.2-1-0.8-1.7-1.7-2
			c-0.6-0.2-1.3-0.3-1.9-0.3c-0.6,0-1.1,0-1.7,0c-2.3,0-4.7,0-7,0c-1.2,0-2.4-0.1-3.6-0.2c-2.4-0.3-4.4-1.4-6.1-3.1
			c-1.1-1.1-1.6-2.5-1.6-4c0-2.7-0.1-5.4,0-8.1c0.1-2.6,1.3-4.6,3.6-5.9c1.1-0.6,2.4-1.1,3.7-1.2c1.4-0.1,2.8-0.3,4.2-0.3
			c6,0,12.1,0,18.1,0c0.6,0,1.1,0.1,1.7,0.1c0.2,0,0.5,0.3,0.6,0.5c0,0.1,0.1,0.2,0.1,0.3c0.1,1.8,0.1,3.5,0,5.3
			c0,0.4-0.3,0.7-0.7,0.8c-0.2,0-0.4,0.1-0.6,0.1c-0.7,0-1.5,0-2.2,0c-4.2,0-8.4,0-12.6,0.1c-0.7,0-1.3,0-2,0
			c-0.8,0-1.5,0.2-2.2,0.5c-0.5,0.2-0.9,0.7-1.2,1.2c-0.1,0.2-0.1,0.4-0.2,0.5c-0.1,1.2-0.1,2.4,0,3.6c0.1,1,0.7,1.7,1.5,2.2
			c0.8,0.4,1.6,0.6,2.4,0.6c0.6,0,1.1,0,1.7,0c2.3,0,4.7,0,7,0c0.8,0,1.7,0,2.5,0.1c2.1,0.1,4,0.8,5.8,1.9c0.6,0.3,1,0.8,1.4,1.3
			c0.7,0.9,1.2,1.9,1.2,3.1c0,0.5,0,0.9,0,1.4c0,2.3,0,4.7,0,7c0,0.5,0,0.9,0,1.4c-0.1,1.5-0.6,2.7-1.6,3.8
			c-0.4,0.5-0.9,0.9-1.5,1.2c-1,0.6-2,1-3.1,1.3c-1.5,0.4-3.1,0.6-4.7,0.6C289,157.1,285.6,157.2,282.1,157.2
			C282.1,157.2,282.1,157.2,282.1,157.2z"/>
		<path class="st0" d="M68,157.2c-3.5,0-7.1,0-10.6,0c-0.5,0-0.9,0-1.4,0c-0.4,0-0.7-0.3-0.8-0.7c-0.1-1.9-0.1-3.7,0-5.6
			c0-0.5,0.4-0.8,0.9-0.8c0.3,0,0.6,0,0.8,0c0.7,0,1.3,0,2,0c4.7,0,9.3,0,14,0c0.7,0,1.5,0,2.2,0c1.1-0.1,2-0.5,2.8-1.2
			c0.2-0.2,0.4-0.4,0.5-0.7c0.1-0.2,0.2-0.3,0.2-0.5c0.2-1.4,0.2-2.8,0-4.2c-0.1-0.9-0.8-1.5-1.6-1.8c-0.8-0.3-1.6-0.4-2.5-0.4
			c-1.4,0-2.8,0-4.2,0c-1.3,0-2.6,0-3.9,0c-1.2,0-2.4-0.1-3.6-0.2c-2.7-0.4-4.9-1.6-6.6-3.7c-0.7-0.8-1-1.8-1.1-2.8
			c0-0.8,0-1.7,0-2.5c0-1.9,0-3.7,0-5.6c0-0.4,0-0.7,0-1.1c0-1.3,0.5-2.4,1.2-3.4c0.6-0.8,1.4-1.5,2.3-2c1.1-0.6,2.2-1,3.4-1.2
			c1.2-0.2,2.4-0.3,3.6-0.3c6.6,0,13.2,0,19.8,0c0.3,0,0.6,0.1,0.8,0.1c0.2,0,0.6,0.3,0.6,0.5c0,0.1,0.1,0.2,0.1,0.3
			c0,1.8,0,3.5,0,5.3c0,0.4-0.3,0.7-0.7,0.8c-0.3,0-0.6,0.1-0.8,0.1c-0.7,0-1.5,0-2.2,0c-4.5,0-8.9,0-13.4,0.1
			c-0.9,0-1.9,0.1-2.7,0.4c-0.4,0.1-0.7,0.3-0.9,0.6c-0.4,0.4-0.6,0.9-0.7,1.5c-0.1,1-0.1,2,0,3.1c0.1,1.2,0.9,2.3,2.1,2.7
			c0.9,0.3,1.8,0.4,2.7,0.4c2.4,0,4.8,0,7.3,0c0.8,0,1.7,0,2.5,0c1.9,0,3.7,0.6,5.4,1.4c0.2,0.1,0.3,0.2,0.5,0.3
			c1.9,1.1,3,2.7,3.2,4.9c0,0.3,0,0.6,0,0.8c0,2.5,0,5,0,7.5c0,0.7-0.1,1.3-0.2,1.9c-0.3,1.5-1.1,2.7-2.3,3.7
			c-1.1,0.9-2.4,1.4-3.8,1.8c-1.4,0.4-2.7,0.6-4.1,0.6c-1.9,0-3.7,0-5.6,0C71.4,157.2,69.7,157.2,68,157.2z"/>
		<path class="st0" d="M386.2,157.2c-1.3-0.1-2.7,0.1-4.2-0.1c-0.2,0-0.5-0.4-0.4-0.6c0-0.2,0-0.4,0.1-0.5c0.2-0.4,0.3-0.9,0.5-1.3
			c1.7-3.8,3.3-7.7,5-11.5c3.4-7.9,6.8-15.7,10.2-23.6c0.1-0.3,0.2-0.5,0.4-0.7c0.2-0.2,0.4-0.4,0.7-0.4c0.3,0,0.6-0.1,0.8-0.1
			c1.4,0,2.8,0,4.2,0c1.2,0,2.4,0.1,3.6,0.3c1.4,0.2,2.7,0.8,3.8,1.7c0.7,0.5,1.2,1.2,1.6,1.9c0.3,0.6,0.6,1.2,0.8,1.8
			c1.8,4.3,3.7,8.5,5.5,12.8c2.6,6.1,5.2,12.1,7.9,18.2c0.2,0.5,0.4,1,0.6,1.6c0.1,0.2-0.2,0.6-0.5,0.6c-1.2,0-2.4,0-3.6,0
			c-1.9,0-3.7,0-5.6-0.1c-0.3,0-0.5-0.2-0.7-0.4c-0.2-0.2-0.3-0.5-0.4-0.7c-0.3-0.8-0.6-1.5-1-2.3c-0.7-1.5-1.3-3.1-2-4.6
			c-0.1-0.3-0.4-0.4-0.7-0.4c-0.2,0-0.4-0.1-0.5-0.1c-0.7,0-1.5,0-2.2,0c-3,0-6,0-8.9,0c-0.4,0-0.7-0.1-1.1-0.1
			c-0.2,0-0.5-0.4-0.4-0.6c0-0.1,0-0.2,0-0.3c0.6-1.7,1.1-3.4,1.8-5c0.1-0.3,0.4-0.4,0.7-0.4c0.5,0,0.9-0.1,1.4-0.1
			c1.9,0,3.7,0,5.6,0c0.3,0,0.6,0,0.8-0.1c0.1,0,0.2-0.3,0.2-0.5c0-0.3-0.1-0.5-0.2-0.8c-1.1-2.6-2.2-5.1-3.3-7.7
			c-0.7-1.6-1.4-3.3-2.1-4.9c-0.1-0.3-0.4-0.6-0.5-1c0-0.1-0.2-0.2-0.2-0.2c-0.2,0.1-0.4,0.2-0.5,0.3c-0.2,0.2-0.3,0.5-0.4,0.7
			c-1.1,2.9-2.2,5.7-3.3,8.6c-2.4,6.3-4.8,12.7-7.3,19c-0.1,0.3-0.2,0.5-0.3,0.8c-0.2,0.4-0.5,0.8-1,0.8c-0.7,0-1.3,0-2,0
			C388.1,157.2,387.2,157.2,386.2,157.2z"/>
		<path class="st0" d="M440.3,118.4c4.7,0,9.5,0,14.2,0c0.7,0,1.3,0,2,0c0.5,0,0.9,0.4,0.9,0.9c0.1,1.8,0.1,3.5,0,5.3
			c0,0.3-0.4,0.7-0.8,0.7c-0.7,0-1.3,0.1-2,0.1c-2.6,0-5.2,0-7.8,0c-0.3,0-0.6,0-0.8,0.1c-0.2,0.1-0.3,0.2-0.4,0.4
			c-0.1,0.2-0.1,0.4-0.1,0.5c0,0.8,0,1.7,0,2.5c0,8.3,0,16.6,0,24.9c0,0.8,0,1.7-0.1,2.5c0,0.5-0.4,0.8-0.9,0.8c-2.8,0-5.6,0-8.4,0
			c-0.5,0-0.9-0.4-0.9-0.9c0-0.3,0-0.6,0-0.8c0-0.6,0-1.1,0-1.7c0-8.6,0-17.1,0-25.7c0-0.7,0.1-1.5-0.1-2.2c0-0.2-0.2-0.3-0.4-0.4
			c-0.4-0.1-0.7-0.1-1.1-0.1c-2.6,0-5.2,0-7.8,0c-0.6,0-1.1,0-1.7-0.1c-0.3,0-0.6-0.4-0.7-0.8c-0.1-1.8-0.1-3.5,0-5.3
			c0-0.3,0.4-0.7,0.7-0.7c0.4,0,0.7-0.1,1.1-0.1c0.9,0,1.9,0,2.8,0C432.2,118.4,436.3,118.4,440.3,118.4z"/>
		<path class="st0" d="M246.4,118.4c5,0,10.1,0,15.1,0c0.5,0,0.9,0,1.4,0.1c0.1,0.1,0.6,0.4,0.6,0.6c0,0.2,0.1,0.4,0.1,0.6
			c0,1.7,0.1,3.4-0.1,5c0,0.2-0.4,0.5-0.5,0.6c-0.2,0-0.4,0.1-0.5,0.1c-0.7,0-1.3,0-2,0c-2.2,0-4.5,0-6.7,0c-0.5,0-0.9,0-1.4,0.1
			c-0.4,0-0.7,0.4-0.7,0.7c0,0.8-0.1,1.7-0.1,2.5c0,8.6,0,17.1,0,25.7c0,0.7,0.1,1.5-0.1,2.2c0,0.2-0.4,0.5-0.6,0.6
			c-0.1,0-0.2,0-0.3,0c-2.8,0-5.6,0-8.4,0c-0.5,0-0.9-0.4-0.9-0.9c0-0.3,0-0.6,0-0.8c0-0.7,0-1.5,0-2.2c0-8.2,0-16.4,0-24.6
			c0-0.8,0-1.7-0.1-2.5c0-0.3-0.4-0.7-0.7-0.7c-0.6,0-1.1-0.1-1.7-0.1c-2.4,0-4.8,0-7.3,0c-0.5,0-0.9,0-1.4-0.1
			c-0.2,0-0.6-0.3-0.6-0.5c0-0.1-0.1-0.2-0.1-0.3c-0.1-1.8-0.1-3.5,0-5.3c0-0.3,0.4-0.7,0.7-0.7c0.4,0,0.7-0.1,1.1-0.1
			c1,0,2,0,3.1,0C238.4,118.4,242.4,118.4,246.4,118.4C246.4,118.4,246.4,118.4,246.4,118.4z"/>
	</g>
	<g>
		<path class="st1" d="M595,16.3c-0.2-0.1-0.4,0-0.5,0.1c-0.5,1.2-1.3,2.3-2.2,3.2c-1.3,1.3-2.8,2.1-4.5,2.7c-1,0.3-2,0.4-3,0.4
			c-5.2,0-9-3.2-10.5-7.3c-0.7-2-0.7-4-0.5-6.1c0.9-3.8,3.1-6.5,6.6-8.1c1.5-0.6,3-0.9,4.6-0.8c3.9,0.2,6.9,2,9,5.3
			c0.3,0.4,0.3,0.9,0.5,1.3c0.1,0.2,0.2,0.3,0.4,0.3C595,10.4,595,13.3,595,16.3z M585.1,20.9c0.6,0,1.4,0,2.1-0.3
			c1.7-0.5,3.2-1.5,4.3-2.9c1.2-1.5,1.9-3.2,2-5.1c0.1-1.3,0.1-2.6-0.3-3.9c-0.6-1.8-1.6-3.4-3.1-4.6c-1.5-1.2-3.2-1.9-5.1-1.9
			c-0.2,0-0.4,0-0.6,0c-1.3,0-2.6,0.4-3.7,1c-2.7,1.4-4.6,4.5-4.7,7.4c0,0.6,0,1.1,0,1.7c0,1.3,0.4,2.6,1,3.7
			C578.7,19.2,581.3,20.9,585.1,20.9z"/>
		<path class="st1" d="M340.6,41.4c0,12.7,0,25.3,0,38c0,1.2,0,2.4-0.2,3.6c-0.4,2.7-1.6,5-3.4,6.9c-1.8,2-4.1,3.2-6.6,3.9
			c-0.4,0.1-0.7,0.2-1.1,0.2c-0.9,0.1-1.9,0.1-2.8,0.1c-6.5,0-13,0-19.6,0c-1,0-2,0-3.1-0.1c-4.2-0.2-8-1.7-11.2-4.4
			c-2-1.7-3.7-3.7-4.9-6c-0.3-0.7-0.7-1.3-1-2c-8.8-17.5-17.5-34.9-26.3-52.4c-0.4-0.8-0.8-1.7-1.3-2.5c-0.4-0.6-1.4-0.8-2-0.4
			c-0.3,0.2-0.5,0.5-0.6,0.9c-0.1,0.3-0.1,0.6-0.1,0.8c0,0.9,0,1.9,0,2.8c0,19.8,0,39.7,0,59.5c0,0.9,0,1.9-0.1,2.8
			c0,0.2-0.3,0.6-0.5,0.6c-0.2,0-0.4,0.1-0.5,0.1c-0.4,0-0.7,0-1.1,0c-4.2,0-5.1,0-5.3-0.2c-1-1.4-1.6-2.9-2.4-4.4
			c-5.2-10.1-10.4-20.2-15.6-30.3c-1.3-2.5-1.1-1.8-1.1-4.5c0-13.2,0-26.4,0-39.7c0-1.3,0.1-2.6,0.3-3.9c0.5-2.5,1.7-4.7,3.5-6.6
			c1.7-1.8,3.8-3,6.2-3.6c0.4-0.1,0.9-0.2,1.4-0.2c0.8-0.1,1.7-0.1,2.5-0.1c7,0,14,0,21,0c0.5,0,0.9,0,1.4,0c3.1,0.1,6,1,8.7,2.6
			c3.1,1.8,5.5,4.4,7.4,7.5c0.4,0.7,0.8,1.5,1.2,2.2c7.1,14,14.2,28.1,21.3,42.1c2,3.9,4,7.8,6,11.7c0.3,0.5,0.5,1,0.8,1.5
			c0.3,0.4,1,0.7,1.5,0.6c0.6-0.2,1.2-0.8,1.2-1.4c0-0.8,0.1-1.7,0.1-2.5c0-7.5,0-14.9,0-22.4c0-12.9,0-25.7,0-38.6
			c0-0.9-0.1-1.9,0.1-2.8c0-0.2,0.2-0.3,0.4-0.4c0.2-0.1,0.4-0.1,0.5-0.1c0.6,0,1.1,0,1.7,0c7.1,0,14.2,0,21.2,0c0.6,0,1.1,0,1.7,0
			c0.5,0,0.9,0.4,0.9,0.8c0,0.9,0,1.9,0,2.8C340.6,16.6,340.6,29,340.6,41.4z"/>
		<path class="st1" d="M409.2,0.5c12.4,0,24.8,0,37.2,0c0.9,0,1.9,0,2.8,0.1c0.4,0,0.6,0.4,0.4,0.8c-0.2,0.5-0.5,1-0.7,1.5
			c-2,3.9-4,7.8-6,11.7c-1.2,2.4-2.5,4.8-3.7,7.2c-0.3,0.5-0.5,1-0.8,1.5c-0.1,0.2-0.4,0.4-0.7,0.4c-0.9,0-1.9,0-2.8,0
			c-14,0-27.9,0-41.9,0c-0.8,0-1.7,0-2.5,0c-4.3,0.2-7.4,2.3-9.1,6.3c-0.5,1.1-0.8,2.3-0.8,3.5c0,0.7,0,1.3,0,2c0,8,0,16,0,24
			c0,0.7,0,1.3,0,2c0,1.2,0.3,2.4,0.8,3.5c1.3,3,3.5,5,6.6,5.9c0.4,0.1,0.9,0.2,1.4,0.2c0.6,0,1.3,0,2,0c11.8,0,23.7,0,35.5,0
			c0.4,0,0.7,0,1.1,0c3.9,0,8.2-2.6,9.6-7.2c0.3-0.9,0.5-1.8,0.5-2.7c0-0.8,0-1.7,0-2.5c0-5.7,0-11.4,0-17c0-0.6,0-1.1,0.1-1.7
			c0-0.2,0.4-0.5,0.6-0.5c0.4,0,0.7-0.1,1.1-0.1c8.3,0,16.6,0,24.9,0c0.4,0,0.7,0,1.1,0.1c0.2,0,0.6,0.3,0.6,0.5
			c0,0.2,0.1,0.4,0.1,0.5c0,5.3,0,10.6,0,15.9c0,0.6-0.2,1.1-0.4,1.6c-1.5,2.8-2.9,5.6-4.4,8.4c-4.4,8.5-8.8,17-13.2,25.5
			c-0.3,0.6-0.5,1.2-1,1.7c-0.2,0.2-0.4,0.4-0.7,0.4c-0.3,0-0.6,0-0.8,0.1c-0.7,0-1.3,0-2,0c-23.5,0-46.9,0-70.4,0
			c-1.1,0-2.2,0-3.4,0c-2.7-0.1-5.1-0.8-7.5-2c-3.8-2-6.7-5-8.7-8.8c-1.4-2.9-2.2-5.9-2.2-9.1c0-0.7,0-1.5,0-2.2
			c0-16.4,0-32.8,0-49.2c0-0.7,0-1.5,0-2.2c0-3.3,0.8-6.5,2.4-9.4c2.4-4.5,6-7.8,10.9-9.5c1.6-0.6,3.2-1,4.9-1c1,0,2,0,3.1,0
			C385.2,0.5,397.2,0.5,409.2,0.5z"/>
		<path class="st1" d="M221.3,94.2c-4.2,0-8.4,0-12.6,0c-0.7,0-1.3,0-2-0.1c-0.3,0-0.5-0.1-0.7-0.4c-0.3-0.6-0.7-1.1-0.9-1.7
			c-1.6-3.2-3.2-6.3-4.8-9.5c-0.3-0.7-0.7-1.3-1.1-2c-0.1-0.3-0.4-0.4-0.7-0.4c-0.9,0-1.9-0.1-2.8-0.1c-12.1,0-24.2,0-36.3,0
			c-3.4,0-6.7,0-10.1,0c-0.7,0-1.3,0-2,0c-0.4,0-0.5-0.4-0.4-0.8c0.1-0.3,0.2-0.5,0.4-0.8c3.5-6.7,6.9-13.4,10.4-20.1
			c0.2-0.3,0.4-0.7,0.6-1c0.2-0.2,0.4-0.4,0.7-0.4c0.7,0,1.5-0.1,2.2-0.1c6.1,0,12.3,0,18.4,0c1.9,0,3.7,0,5.6,0
			c0.4,0,0.7-0.1,1.1-0.1c0.2,0,0.5-0.4,0.4-0.6c-0.1-0.2-0.1-0.4-0.2-0.5c-0.3-0.7-0.7-1.3-1-2c-4.7-9.3-9.4-18.6-14.1-27.9
			c-0.4-0.7-0.8-1.5-1.2-2.2c-0.3-0.6-1.4-0.8-2-0.4c-0.1,0.1-0.3,0.2-0.4,0.4c-0.4,0.7-0.8,1.5-1.2,2.2
			c-4.3,8.3-8.5,16.5-12.8,24.8C147.1,64.2,140,78,133,91.7c-0.3,0.6-0.6,1.2-0.9,1.7c-0.2,0.4-0.6,0.7-1.1,0.7c-0.5,0-0.9,0-1.4,0
			c-8.8,0-17.7,0-26.5,0c-0.6,0-1.1,0.1-1.7-0.1c-0.2-0.1-0.3-0.2-0.3-0.4c0-0.3,0.1-0.5,0.2-0.8c1.5-2.9,3-5.8,4.5-8.7
			c10-19.4,20.1-38.8,30.1-58.3c2.9-5.6,5.8-11.2,8.7-16.9c0.3-0.6,0.6-1.2,0.9-1.7c1.9-3.4,4.7-5.5,8.4-6.4
			c0.4-0.1,0.7-0.2,1.1-0.2c0.9-0.1,1.9-0.1,2.8-0.1c6.1,0,12.1,0,18.2,0c0.7,0,1.3,0,2,0c2.7,0,5.2,0.8,7.5,2
			c3.7,1.9,6.5,4.6,8.4,8.3c1.8,3.5,3.7,7.1,5.5,10.7c5.1,9.9,10.2,19.9,15.3,29.8c6.9,13.4,13.8,26.8,20.7,40.2
			c0.2,0.4,0.4,0.8,0.6,1.2c0.6,1.1,0.4,1.4-1,1.4c-0.7,0-1.5,0-2.2,0C228.9,94.2,225.1,94.2,221.3,94.2z"/>
		<path class="st1" d="M531.9,56.9c3.8,0,7.6,0,11.5,0c0.7,0,1.3,0,2-0.1c0.2,0,0.4-0.2,0.4-0.3c0.1-0.1,0.1-0.4,0.1-0.5
			c-0.2-0.6-0.5-1.2-0.8-1.8c-2.6-5.2-5.2-10.3-7.8-15.5c-2.2-4.3-4.4-8.6-6.5-13c-0.4-0.7-0.8-1.5-1.2-2.2
			c-0.3-0.5-0.8-0.7-1.4-0.7c-0.4,0-0.7,0.2-0.9,0.5c-0.3,0.5-0.6,1-0.8,1.4c-3.2,6.2-6.4,12.4-9.6,18.6
			c-8.3,16.1-16.6,32.2-24.9,48.4c-0.3,0.5-0.5,1-0.8,1.5c-0.3,0.6-0.8,0.8-1.4,0.8c-0.6,0-1.1,0-1.7,0c-8.5,0-16.9,0-25.4,0
			c-0.7,0-1.5,0.1-2.2-0.1c-0.2,0-0.5-0.4-0.4-0.6c0.4-0.8,0.8-1.7,1.2-2.5c5.2-10.1,10.4-20.2,15.6-30.2c6-11.6,12-23.1,17.9-34.7
			c2.9-5.6,5.8-11.2,8.7-16.9c0.4-0.7,0.8-1.5,1.2-2.2c1.9-3.2,4.8-5.2,8.3-6.1c0.4-0.1,0.7-0.1,1.1-0.2c0.9-0.1,1.9-0.1,2.8-0.1
			c5.9,0,11.7,0,17.6,0c0.7,0,1.3,0,2,0c4.7,0.1,8.7,1.8,12.2,4.9c1.8,1.6,3.3,3.5,4.4,5.7c3.3,6.5,6.6,12.9,10,19.4
			c5.8,11.2,11.5,22.3,17.3,33.5c0.5,0.9,0.9,1.8,1.4,2.7c0.2,0.3,0.2,0.7,0,1.1c-0.1,0.3-0.3,0.5-0.4,0.7
			c-4.8,8.4-9.7,16.8-14.5,25.1c-0.2,0.3-0.3,0.7-0.6,0.9c-0.2,0.1-0.4,0.2-0.5,0c-0.2-0.4-0.5-0.8-0.7-1.2
			c-1.9-3.7-3.8-7.5-5.7-11.2c-0.3-0.6-0.6-1.1-0.9-1.7c-0.1-0.2-0.3-0.4-0.7-0.4c-0.9,0-1.9-0.1-2.8-0.1c-15.2,0-30.4,0-45.5,0
			c-0.9,0-1.9,0.1-2.8-0.1c-0.2,0-0.4-0.4-0.4-0.6c0-0.1,0-0.2,0.1-0.3c0.2-0.3,0.3-0.7,0.5-1c3.4-6.5,6.7-13.1,10.1-19.6
			c0.2-0.4,0.4-0.8,0.7-1.2c0.1-0.1,0.3-0.2,0.5-0.3c0.4-0.2,0.9-0.1,1.4-0.1C523.6,56.9,527.8,56.9,531.9,56.9
			C531.9,56.9,531.9,56.9,531.9,56.9z"/>
		<path class="st1" d="M17.8,0.5c5,0,10.1,0,15.1,0c0.7,0,1.3,0,2,0c0.3,0,0.5,0.1,0.8,0.3C36,1.4,36.5,1.8,37,2.3
			c6.6,6.8,13.2,13.6,19.8,20.5c3.7,3.8,7.4,7.7,11,11.5c0.5,0.5,1.1,1,1.6,1.6c0.4,0.4,1.4,0.3,1.8,0c0.4-0.4,0.8-0.8,1.2-1.2
			c3.7-3.8,7.4-7.6,11.1-11.4c4.3-4.5,8.7-8.9,13.1-13.4c2.4-2.5,4.8-4.9,7.2-7.4c0.5-0.5,0.9-0.9,1.4-1.4c0.2-0.2,0.5-0.3,0.8-0.3
			c0.4,0,0.7,0,1.1,0c10.7,0,21.4,0,32.1,0c0.3,0,0.6,0,0.8,0.1c0.2,0,0.3,0.1,0.3,0.4c0,0.1,0,0.2-0.1,0.2
			c-0.4,0.4-0.7,0.8-1.1,1.2c-5.5,5.7-11,11.4-16.5,17.1C112.6,30,102.5,40.5,92.4,50.9c-2.5,2.6-4.4,5.5-5.6,8.9
			c-0.5,1.3-0.8,2.7-1,4.1c-0.3,1.7-0.4,3.3-0.4,5c0,7.4,0,14.7,0,22.1c0,0.8,0,1.7-0.1,2.5c0,0.2-0.3,0.6-0.5,0.6
			c-0.4,0-0.7,0.1-1.1,0.1c-8.9,0-17.9,0-26.8,0c-0.4,0-0.7,0-1.1-0.1c-0.1,0-0.2,0-0.3-0.1c-0.1-0.1-0.3-0.3-0.3-0.4
			c-0.1-0.7-0.1-1.5-0.1-2.2c0-7.1,0-14.2,0-21.2c0-0.8,0-1.7,0-2.5c-0.1-6.3-2.3-11.8-6.7-16.4c-5.4-5.6-10.7-11.1-16.1-16.7
			c-7.6-7.9-15.2-15.8-22.9-23.8C6.7,7.9,3.9,5,1.1,2.2C0.8,1.8,0.5,1.5,0.2,1.1c0,0,0-0.2,0.1-0.3c0-0.1,0.1-0.2,0.2-0.2
			C0.6,0.6,0.8,0.6,1,0.6c0.8,0,1.7,0,2.5,0C8.3,0.5,13,0.5,17.8,0.5z"/>
		<path class="st1" d="M580.6,11.7c0-1.6,0-3.2,0-4.7c0-0.3,0.1-0.5,0.1-0.8c0-0.2,0.2-0.3,0.4-0.4c2-0.6,4-0.5,6,0.1
			c0.5,0.2,1,0.5,1.4,0.9c0.1,0.1,0.2,0.3,0.3,0.5c0.3,0.8,0.5,1.6,0.2,2.5c-0.1,0.5-0.3,0.9-0.7,1.2c-0.2,0.2-0.4,0.4-0.6,0.6
			c-0.3,0.3-0.4,0.6-0.1,0.9c0.5,0.5,0.8,1.2,1.1,1.9c0.1,0.2,0.1,0.4,0.1,0.5c0.1,0.8,0.3,1.6,0.5,2.5c0,0.2,0,0.4-0.2,0.5
			c-0.5,0.3-1,0.3-1.6,0c-0.2-0.1-0.3-0.3-0.3-0.4c-0.3-0.8-0.5-1.6-0.6-2.4c0-0.3-0.1-0.5-0.2-0.8c-0.3-0.6-0.7-1.1-1.4-1.2
			c-0.5-0.1-1.1-0.2-1.7-0.1c-0.2,0-0.6,0.3-0.6,0.5c0,0.6,0,1.3-0.1,1.9c0,0.6,0,1.3-0.1,1.9c0,0.4-0.3,0.7-0.7,0.7
			c-0.3,0-0.5,0-0.8-0.1c-0.2-0.1-0.3-0.2-0.4-0.4c-0.1-0.3-0.1-0.5-0.1-0.8C580.6,15,580.6,13.4,580.6,11.7
			C580.6,11.7,580.6,11.7,580.6,11.7z M582.7,9.4c0,0.2,0,0.8,0.1,1.3c0,0.1,0.2,0.4,0.3,0.4c1.1,0.3,2.2,0.1,3.1-0.6
			c0.5-0.3,0.7-0.8,0.7-1.4c0-0.7-0.3-1.2-0.9-1.6c-0.9-0.6-1.9-0.7-2.9-0.4c-0.1,0-0.3,0.2-0.4,0.4C582.7,7.9,582.7,8.5,582.7,9.4z
			"/>
	</g>
</g>
</svg>
